<?xml version="1.0" encoding="UTF-8" standalone="no"?>
<!-- Created with Inkscape (http://www.inkscape.org/) -->

<svg
   width="137.13383mm"
   height="35.722721mm"
   viewBox="0 0 137.13384 35.722721"
   version="1.1"
   id="svg1"
   inkscape:version="1.4.2 (f4327f4, 2025-05-13)"
   sodipodi:docname="drawing.svg"
   xmlns:inkscape="http://www.inkscape.org/namespaces/inkscape"
   xmlns:sodipodi="http://sodipodi.sourceforge.net/DTD/sodipodi-0.dtd"
   xmlns="http://www.w3.org/2000/svg"
   xmlns:svg="http://www.w3.org/2000/svg">
  <sodipodi:namedview
     id="namedview1"
     pagecolor="#ffffff"
     bordercolor="#000000"
     borderopacity="0.25"
     inkscape:showpageshadow="2"
     inkscape:pageopacity="0.0"
     inkscape:pagecheckerboard="0"
     inkscape:deskcolor="#d1d1d1"
     inkscape:document-units="mm"
     inkscape:zoom="0.50835204"
     inkscape:cx="408.1817"
     inkscape:cy="498.67017"
     inkscape:window-width="1920"
     inkscape:window-height="1009"
     inkscape:window-x="-8"
     inkscape:window-y="-8"
     inkscape:window-maximized="1"
     inkscape:current-layer="layer1">
    <inkscape:page
       x="0"
       y="0"
       width="137.13385"
       height="35.722721"
       id="page1"
       margin="14.573235 29.146467 252.94971 20.298433"
       bleed="0" />
  </sodipodi:namedview>
  <defs
     id="defs1" />
  <g
     inkscape:label="Layer 1"
     inkscape:groupmode="layer"
     id="layer1"
     transform="translate(-34.871669,-12.491343)">
    <path
       d="m 66.429039,36.058303 -0.32808,2.44739 h -3.1406 c -1.87061,0 -3.07975,-0.10054 -2.98715,-0.24606 0.082,-0.13494 0.045,-0.31221 -0.0873,-0.39423 -0.20638,-0.127 -0.37306,-1.01864 -0.71702,-3.85762 -0.045,-0.36513 -0.26459,-1.53988 -0.486836,-2.61409 -0.750745,-3.44883 -1.372121,-6.91999 -1.739252,-10.50203 0.09525,-0.24607 0.926981,-0.37763 2.395418,-0.37763 h 2.07698 l 0.14552,0.85989 c 0.53561,4.29827 1.1467,8.61321 1.58356,12.92167 0.61212,-3.23603 1.69557,-10.64999 2.04652,-13.91386 l 2.82046,0.09 c 1.55046,0.0503 2.8575,0.127 2.90248,0.17198 0.0767,0.0741 1.34673,9.2075 1.76213,12.65767 0.10054,0.84931 0.23018,1.49754 0.28839,1.44198 0.17439,-1.07097 0.44621,-2.81763 2.01316,-14.23206 0.46086,0.007 0.15378,0.003 2.1064,0.003 h 2.15107 l -0.17992,1.38906 c -0.10054,0.76464 -0.52652,3.53219 -0.94721,6.15156 -0.42333,2.61938 -0.97102,6.04308 -1.21973,7.60677 l -0.45508,2.84427 h -6.22035 l -0.15875,-0.7276 c -0.0873,-0.39952 -0.21167,-1.32292 -0.28046,-2.05052 -0.0688,-0.72761 -0.24342,-1.97909 -0.38629,-2.77813 -0.14553,-0.79904 -0.3175,-1.98966 -0.381,-2.64583 -0.0635,-0.65617 -0.24871,-2.00025 -0.41011,-2.98979 -0.16139,-0.98954 -0.24342,-1.88384 -0.18521,-1.98438 0.0582,-0.10318 0.0159,-0.42333 -0.0952,-0.71437 -0.0503,-0.13759 -0.0926,-0.25665 -0.13493,-0.25929 -0.17463,-0.005 -0.41275,1.76477 -1.66688,11.08075 z m 25.4688,2.70668 c -1.31234,0.36513 -4.42913,0.30692 -5.75205,-0.10583 -1.02393,-0.32014 -3.15383,-1.94998 -2.89189,-2.21192 0.0661,-0.0661 -0.0582,-0.29897 -0.27781,-0.51858 -0.33603,-0.33602 -0.38365,-1.37319 -0.3175,-6.70454 0.0741,-5.94783 0.10847,-6.32883 0.60854,-6.70719 0.29104,-0.2196 0.44185,-0.40216 0.33337,-0.40746 -0.42069,-0.0185 0.78052,-1.1377 1.78329,-1.66423 1.54252,-0.80697 5.842,-0.8202 7.54327,-0.0185 2.6035,1.22502 2.88132,2.09286 2.89719,9.09373 0.0106,5.12234 -0.0238,5.50069 -0.58473,6.61194 -0.64558,1.27794 -1.83356,2.21456 -3.34168,2.6326 z m 47.016451,-7.40304 0.0873,7.14375 h -4.53761 v -9.15723 c 0,-8.23912 0.0423,-9.1387 0.41804,-8.99583 0.23019,0.09 1.78065,0.1614 3.44752,0.1614 h 3.02684 l 0.27781,0.7276 c 0.15346,0.39952 1.13242,3.44223 2.17752,6.7601 l 1.89706,6.0325 0.24077,-1.79916 c 0.15875,-1.20386 0.13759,-2.50296 -0.0661,-3.92906 -0.16934,-1.17211 -0.30692,-3.40519 -0.30692,-4.96094 v -2.83104 h 4.49792 v 17.99166 l -2.97656,-0.005 c -1.63778,0 -3.1115,-0.09 -3.2729,-0.19844 -0.16404,-0.10583 -0.39688,-0.60854 -0.51594,-1.11918 -0.28046,-1.19592 -0.23812,-1.06627 -0.62177,-1.98438 -0.47889,-1.15094 -2.10608,-5.99281 -2.2225,-6.61458 -0.0556,-0.29104 -0.24871,-0.88636 -0.43127,-1.32292 -0.18256,-0.43656 -0.33337,-1.06098 -0.33602,-1.38906 -0.005,-0.32808 -0.11113,-0.59531 -0.23813,-0.59531 -0.12964,0 -0.23283,-0.23813 -0.23283,-0.52917 0,-0.29104 -0.09,-0.52917 -0.19844,-0.52917 -0.10848,0 -0.15875,3.21469 -0.11377,7.14375 z m 26.24138,6.78657 c -1.53194,0.73025 -4.71752,1.00012 -6.36588,0.5371 -1.41023,-0.39423 -2.97656,-1.25677 -2.97391,-1.63513 0,-0.14552 -0.1905,-0.4101 -0.42334,-0.58737 -0.23283,-0.17727 -0.30427,-0.32808 -0.15875,-0.33338 0.14552,-0.008 0.0873,-0.127 -0.13229,-0.26458 -0.32808,-0.20637 -0.4101,-1.21179 -0.47889,-5.74939 -0.0926,-6.06425 0,-7.00617 0.75935,-7.76553 0.2831,-0.2831 0.49212,-0.60325 0.46567,-0.71172 -0.0741,-0.3175 1.70391,-1.41817 2.06639,-1.28059 0.17992,0.0688 0.37571,-0.0159 0.43392,-0.1905 0.0741,-0.2196 0.93927,-0.30691 2.86014,-0.28575 2.37067,0.0238 2.92365,0.11642 3.9423,0.66146 1.42345,0.762 2.33627,2.2516 2.56645,4.18835 l 0.15875,1.3388 H 163.039 v -1.01865 c 0,-1.27265 -0.7276,-1.9976 -2.00025,-1.9976 -1.73037,0 -1.82562,0.30162 -1.91823,6.01398 -0.0767,4.86304 -0.0556,5.12762 0.48419,5.81025 0.67733,0.86254 2.00554,0.96837 2.91306,0.23283 0.50006,-0.40217 0.60061,-0.75671 0.62442,-2.18281 0.0291,-1.69863 0.0291,-1.69863 -0.76465,-1.78859 -1.00541,-0.11377 -1.20385,-0.43391 -1.143,-1.82827 l 0.0503,-1.12448 h 6.51669 v 3.25967 c 0,3.03212 -0.0503,3.36021 -0.7276,4.69635 -0.58209,1.1483 -0.96573,1.55046 -1.91823,2.00555 z m -37.93067,0.27516 c -0.53446,0.27517 -1.67746,0.45509 -3.20939,0.508 -2.50561,0.0873 -3.44488,-0.0635 -4.78367,-0.762 -0.79904,-0.41539 -1.67746,-1.25148 -1.31763,-1.25148 0.10055,0 -0.0476,-0.29368 -0.33073,-0.65352 -0.4736,-0.60325 -0.51858,-1.15623 -0.56091,-6.84477 -0.0265,-3.40254 0.0318,-6.79185 0.12964,-7.52739 l 0.17727,-1.34144 4.16984,-0.16934 v 7.0194 c 0,7.99835 0.045,8.19415 1.82562,8.19415 0.68263,0 1.16417,-0.17727 1.50813,-0.55563 0.46037,-0.51064 0.508,-1.09273 0.57414,-6.94531 0.0397,-3.51367 0.12965,-6.64898 0.19844,-6.96383 0.11642,-0.52388 0.32015,-0.58473 2.24367,-0.66146 l 2.11666,-0.0873 v 7.01146 c -0.003,4.00315 -0.11906,7.43215 -0.27516,7.99571 -0.33602,1.20121 -1.35731,2.46063 -2.46592,3.03477 z m -17.10002,0.0926 c -0.762,0.39423 -5.31019,0.59795 -6.48494,0.28839 -1.47373,-0.38629 -3.15912,-1.48431 -2.90512,-1.89441 0.0688,-0.11113 -0.0661,-0.27517 -0.29898,-0.36248 -0.24077,-0.0926 -0.35719,-0.33338 -0.27252,-0.55827 0.0847,-0.21696 0.037,-0.39423 -0.10319,-0.39423 -0.140231,0 -0.256651,-0.59796 -0.256651,-1.33086 0,-1.58485 0.0741,-1.63248 2.788711,-1.67746 l 1.97379,-0.0344 v 1.13771 c 0,0.889 0.15346,1.27793 0.70115,1.78593 0.38365,0.35719 0.90223,0.64823 1.15094,0.64823 0.73554,0 1.85208,-1.21708 1.85208,-2.02141 0,-1.24619 -0.97631,-2.27277 -3.22792,-3.38932 -2.2225,-1.10331 -3.73062,-2.0955 -3.51631,-2.30981 0.0714,-0.0714 -0.23283,-0.45244 -0.67733,-0.84931 -0.57415,-0.51065 -0.54403,-0.77314 -0.71274,-1.20969 -0.196071,-0.50735 -0.293771,-1.04622 -0.332371,-1.59754 0.0519,-0.55071 0.210911,-1.03583 0.444501,-1.4261 0.35216,-0.58223 1.62342,-2.20572 2.02161,-2.48793 0.3982,-0.28221 0.66589,-0.58056 1.09638,-0.72988 0.57439,-0.19923 0.14433,-0.19797 2.27158,-0.27469 2.12725,-0.0767 4.69106,0.381 5.77585,1.6166 0.9234,1.0504 1.16681,1.76742 1.04246,3.06652 l -0.0847,0.89694 -4.36562,0.15346 v -0.91811 c 0,-1.27 -0.60061,-1.79387 -1.94469,-1.69598 -0.91546,0.0661 -1.12977,0.19579 -1.34144,0.80698 -0.49477,1.40759 0.003,1.98702 3.26496,3.80736 3.35756,1.8706 3.85498,2.24895 4.46352,3.40254 0.56886,1.06891 0.56621,4.22539 0,5.29166 -0.48419,0.90488 -1.36525,1.76213 -2.32304,2.25955 z M 50.326501,23.448263 v 15.05743 h -4.630208 l 0.07673,-6.94531 c 0.04233,-3.82058 0.01058,-7.21254 -0.07144,-7.54062 -0.137584,-0.55563 -0.288396,-0.59532 -2.259542,-0.59532 h -2.111375 v -1.52135 -1.52136 l 6.019271,0.0344 c 3.309937,0.0185 6.233583,0.0503 6.49552,0.0661 0.407459,0.0264 0.465667,0.23812 0.396875,1.42081 l -0.07937,1.38906 z m 37.189838,11.55964 c 0.56885,0.81227 2.46062,0.83079 3.18558,0.0317 0.4445,-0.49212 0.51329,-1.07685 0.59002,-5.09323 0.0979,-5.19641 -0.10319,-6.29973 -1.23825,-6.77069 -0.93927,-0.38893 -2.04788,-0.127 -2.55852,0.60325 -0.58738,0.83873 -0.5715,10.3849 0.0212,11.22892 z"
       style="fill:#ffffff;"
       id="path1" />
  </g>
</svg>
