<?xml version="1.0" encoding="UTF-8" standalone="no"?>
<svg
   width="567.50183"
   height="235.17941"
   viewBox="0 0 567.50183 235.17941"
   version="1.1"
   id="svg3"
   xmlns="http://www.w3.org/2000/svg"
   xmlns:svg="http://www.w3.org/2000/svg">
  <defs
     id="defs3" />
  <path
     id="path2"
     style="fill:#0a4a8e;fill-opacity:1;stroke-width:2.38835"
     d="M 410.53331,0.19097468 A 106.37599,288.14195 79.214015 0 0 266.62119,12.569882 106.37599,288.14195 79.214015 0 0 69.04307,82.120667 l 2.970703,0.01758 c 12.375427,0.06919 23.305816,0.188731 24.285157,0.248048 1.52344,0.0989 1.741585,0.890579 1.484374,5.312498 l -0.296876,5.193354 -14.343749,0.58399 v 56.296873 l -17.3125,-1e-5 0.287109,-25.96679 c 0.158345,-14.28467 0.0391,-26.966687 -0.267577,-28.193352 -0.514411,-2.077417 -1.077408,-2.226571 -8.447267,-2.226567 l -5.660155,2e-6 A 106.37599,288.14195 79.214015 0 0 0.51767975,170.4859 106.37599,288.14195 79.214015 0 0 300.87901,222.6109 106.37599,288.14195 79.214015 0 0 501.79697,151.0152 c -4.79832,0.50158 -9.79733,0.36582 -13.12304,-0.56837 -5.27268,-1.47397 -11.12904,-4.70062 -11.11914,-6.11523 -1e-5,-0.54408 -0.71344,-1.53252 -1.58398,-2.19532 -0.87052,-0.66279 -1.13784,-1.22632 -0.59375,-1.24609 0.54408,-0.0296 0.32691,-0.47582 -0.49414,-0.99024 -1.22667,-0.7716 -1.53382,-4.53057 -1.79102,-21.49608 -0.34625,-22.673445 7.3e-4,-26.194092 2.83984,-29.033204 1.0585,-1.058498 1.83917,-2.256532 1.74024,-2.662114 -0.27698,-1.187096 6.37129,-5.301517 7.72656,-4.787105 0.67269,0.257209 1.4054,-0.05995 1.62305,-0.712891 0.27699,-0.821076 3.51143,-1.147488 10.69335,-1.068366 8.86362,0.0891 10.93164,0.434826 14.74024,2.47266 5.32213,2.849021 8.73505,8.418909 9.5957,15.660162 l 0.5918,5.005858 h -18.08203 v -3.808597 c 0,-4.758267 -2.72025,-7.468752 -7.47852,-7.468754 -6.46964,8e-6 -6.82563,1.128547 -7.17187,22.486331 -0.28688,18.18228 -0.2094,19.17043 1.80859,21.72266 2.53246,3.22494 7.49949,3.62119 10.89258,0.87109 1.86968,-1.50365 2.24496,-2.8301 2.33398,-8.16211 0.10881,-6.35095 0.1103,-6.35115 -2.85742,-6.6875 -3.75913,-0.42537 -4.50291,-1.62068 -4.27539,-6.83398 l 0.18946,-4.20508 24.36523,-1e-5 v 12.18751 c 0,8.78713 -0.11368,11.49929 -1.34376,14.60156 A 106.37599,288.14195 79.214015 0 0 566.98448,64.694884 106.37599,288.14195 79.214015 0 0 410.53331,0.19097468 Z M 289.94346,79.942926 c 7.95352,-0.286873 17.5398,1.423213 21.5957,6.042969 3.45248,3.927292 4.35699,6.609 3.89844,11.466795 l -0.31836,3.35352 -16.32227,0.57422 1e-5,-3.433599 c -1e-5,-4.74836 -2.24419,-6.707817 -7.26953,-6.341789 -3.42279,0.247314 -4.22424,0.732453 -5.01563,3.017571 -1.84988,5.262793 0.0104,7.430337 12.20703,14.236337 12.5535,6.99396 14.41222,8.4076 16.6875,12.7207 2.12686,3.99655 2.11698,15.7985 0,19.78515 -1.81032,3.38321 -5.1045,6.58748 -8.68555,8.44726 -2.84903,1.47397 -19.85384,2.23749 -24.24609,1.08009 -5.51007,-1.4443 -11.81101,-5.55064 -10.86132,-7.08399 0.25721,-0.41545 -0.24665,-1.02902 -1.1172,-1.35547 -0.90021,-0.34624 -1.3361,-1.24703 -1.01952,-2.08788 0.31655,-0.81119 0.13752,-1.47267 -0.38673,-1.47266 -0.5243,-2e-5 -0.95898,-2.23638 -0.95898,-4.97656 0,-5.92558 0.27614,-6.10332 10.42578,-6.27148 l 7.38086,-0.12892 v 4.25391 c 0,3.32387 0.57335,4.77841 2.6211,6.67773 1.43439,1.33549 3.37284,2.42383 4.30273,2.42383 2.75008,0 6.92578,-4.55129 6.92578,-7.55859 0,-4.65935 -3.64989,-8.49725 -12.06836,-12.67188 -8.30964,-4.12514 -13.94972,-7.83543 -13.14844,-8.63672 0.2671,-0.26708 -0.86933,-1.69191 -2.53125,-3.17578 -2.14666,-1.90925 -2.03523,-2.88928 -2.66602,-4.52148 -0.73307,-1.8969 -1.09789,-3.91136 -1.24218,-5.972659 0.19412,-2.059058 0.78873,-3.872842 1.66211,-5.332032 1.31665,-2.176859 6.06976,-8.247593 7.55859,-9.302727 1.4888,-1.055136 2.49008,-2.170255 4.09962,-2.728516 2.14755,-0.744922 0.53867,-0.74047 8.49218,-1.02735 z m -61.84766,0.01368 c 5.53483,-0.01484 11.14381,0.723933 14.32422,2.222649 9.73415,4.580198 10.77267,7.824626 10.83203,33.999995 0.0396,19.15175 -0.0884,20.56589 -2.18554,24.72071 -2.41375,4.77803 -6.85544,8.28075 -12.49415,9.84375 -4.90663,1.36515 -16.55963,1.14675 -21.50585,-0.39649 -3.82837,-1.19697 -11.79185,-7.29019 -10.8125,-8.26953 0.24732,-0.24731 -0.21796,-1.11836 -1.03907,-1.93944 -1.25633,-1.25633 -1.43481,-5.13512 -1.1875,-25.06837 0.27698,-22.2382 0.40572,-23.661561 2.2754,-25.076166 1.08816,-0.82108 1.65169,-1.503666 1.24609,-1.523435 -1.57289,-0.06921 2.91873,-4.254064 6.66797,-6.222663 2.88363,-1.508588 8.34409,-2.276186 13.8789,-2.29101 z m 170.93946,1.896481 c 0.0784,-0.0028 0.16221,0.01547 0.25,0.04881 0.86063,0.336361 6.65644,0.603511 12.88867,0.60351 l 11.31836,4e-6 1.03906,2.720703 c 0.57377,1.493758 4.2331,12.868319 8.14062,25.273436 l 7.09376,22.55469 0.89843,-6.72656 c 0.59354,-4.50107 0.51561,-9.35743 -0.24609,-14.68946 -0.63312,-4.38234 -1.14844,-12.732054 -1.14844,-18.548827 V 82.505415 l 16.81836,-8e-6 v 67.267583 l -11.1289,-0.0195 c -6.12343,0 -11.63485,-0.33466 -12.23829,-0.74024 -0.61334,-0.3957 -1.48256,-2.27631 -1.92773,-4.18554 -1.04859,-4.4714 -0.89178,-3.98726 -2.32617,-7.41993 -1.79052,-4.3032 -7.87332,-22.40573 -8.3086,-24.73047 -0.20767,-1.08818 -0.9307,-3.31303 -1.61328,-4.94531 -0.68258,-1.63225 -1.24597,-3.96668 -1.25586,-5.19336 -0.019,-1.22664 -0.41582,-2.22655 -0.89062,-2.22656 -0.48474,1e-5 -0.8711,-0.890358 -0.8711,-1.97851 0,-1.088183 -0.33465,-1.978521 -0.74024,-1.978524 -0.40559,-2.1e-5 -0.59395,12.018714 -0.42577,26.708984 l 0.32617,26.70898 -16.96485,1e-5 v -34.23829 c 0,-28.87971 0.13771,-33.63946 1.31251,-33.681633 z m -260.31641,0.156245 10.54492,0.337897 c 5.79695,0.187984 10.68339,0.474402 10.85156,0.642576 0.2869,0.276974 5.03478,34.424475 6.5879,47.324215 0.35829,3.02661 0.81829,5.3711 1.04882,5.4043 9.5e-4,5e-5 0.005,0 0.006,-1.2e-4 4.7e-4,-5e-5 0.003,-9e-5 0.004,-2e-5 l 0.002,-2e-5 0.002,-0.002 c 0.006,-0.002 0.0105,-0.005 0.0156,-0.01 0.65203,-4.00425 1.66872,-10.5358 7.52734,-53.212893 1.72311,0.0246 0.57634,0.01171 7.87696,0.01171 l 8.04101,2e-6 -0.67187,5.193366 c -0.3759,2.858903 -1.96812,13.206475 -3.54101,22.999995 -1.58281,9.79351 -3.63069,22.59496 -4.56056,28.44141 l -1.70117,10.63281 -23.25781,1e-5 -0.59374,-2.72071 c -0.3265,-1.49376 -0.79165,-4.94559 -1.04884,-7.66602 -0.2572,-2.72043 -0.90916,-7.39919 -1.44336,-10.38672 -0.54409,-2.98751 -1.18833,-7.43924 -1.42578,-9.89257 -0.23741,-2.45334 -0.92975,-7.47797 -1.5332,-11.17774 -0.60344,-3.69977 -0.90905,-7.04402 -0.6914,-7.41992 0.21762,-0.38581 0.058,-1.583717 -0.35739,-2.671881 -0.18798,-0.51441 -0.34563,-0.95886 -0.5039,-0.968751 -0.65291,-0.01901 -1.54341,6.598422 -6.23243,41.429682 l -0.3164,2.32423 -1.22657,9.15038 -11.74218,1e-5 c -6.99396,-1e-5 -11.51419,-0.37585 -11.16797,-0.91993 0.30667,-0.50453 0.16836,-1.16794 -0.32621,-1.4746 -0.7716,-0.47484 -1.39564,-3.80731 -2.68163,-14.42187 -0.16827,-1.36517 -0.98934,-5.75712 -1.82032,-9.77344 -2.80694,-12.89476 -5.12928,-25.872837 -6.50192,-39.265639 0.35613,-0.920003 3.46477,-1.412108 8.95508,-1.412111 l 7.76562,2e-6 0.54491,3.214844 c 2.0026,16.070684 4.28658,32.203724 5.91993,48.312504 2.28866,-12.0991 6.34015,-39.820267 7.65234,-52.023442 z m 210.5293,6e-6 v 26.246082 c 0,29.90482 0.16848,30.63673 6.82617,30.63673 2.55226,0 4.35265,-0.66353 5.63867,-2.07813 1.72129,-1.90925 1.89916,-4.08475 2.14648,-25.96679 0.1484,-13.137168 0.48499,-24.859914 0.74219,-26.037116 0.43526,-1.958688 1.19688,-2.185775 8.38867,-2.472651 l 7.91407,-0.328129 v 26.216796 c -0.0106,14.96725 -0.44565,27.78744 -1.0293,29.89453 -1.25635,4.49118 -5.07382,9.19904 -9.21875,11.3457 -1.99826,1.02883 -6.2723,1.70256 -12,1.90039 -9.36814,0.32645 -12.87917,-0.23801 -17.88476,-2.8496 -2.98751,-1.55312 -6.2731,-4.67969 -4.92774,-4.67969 0.37592,-3e-5 -0.17806,-1.09793 -1.23633,-2.44336 -1.77074,-2.25547 -1.93742,-4.32305 -2.0957,-25.59179 -0.0989,-12.72168 0.12094,-25.392166 0.48437,-28.142585 l 0.66212,-5.015628 z m -120.61914,9.783198 c -0.34132,-0.01294 -0.68165,-0.0062 -1.01758,0.01953 -2.23952,0.171857 -4.30672,1.193944 -5.5,2.900395 -2.19612,3.135896 2.80665,44.708999 0.0801,41.982419 2.12689,3.03699 9.19964,3.10661 11.91015,0.11914 1.66195,-1.83999 1.91823,-4.02624 2.20508,-19.04297 0.36604,-19.428743 -0.38504,-23.553598 -4.62891,-25.314449 -0.98769,-0.408996 -2.02484,-0.625101 -3.04882,-0.664069 z" />
</svg>
